HIERARCHY
ROOT Pelvis
{
	OFFSET -0.001795 -0.223333 0.028219
	CHANNELS 6 Xposition Yposition Zposition Zrotation Yrotation Xrotation 
	JOINT Left_hip
	{
		OFFSET 0.069520 -0.091406 -0.006815
		CHANNELS 3 Zrotation Yrotation Xrotation
		JOINT Left_knee
		{
			OFFSET 0.034277 -0.375199 -0.004496
			CHANNELS 3 Zrotation Yrotation Xrotation
			JOINT Left_ankle
			{
				OFFSET -0.013596 -0.397960 -0.043693
				CHANNELS 3 Zrotation Yrotation Xrotation
				JOINT Left_foot
				{
					OFFSET 0.026358 -0.055791 0.119288
					CHANNELS 3 Zrotation Yrotation Xrotation
					End Site
					{
						OFFSET 0.000000 0.000000 0.000000
					}
				}
			}
		}
	}
	JOINT Right_hip
	{
		OFFSET -0.067670 -0.090522 -0.004320
		CHANNELS 3 Zrotation Yrotation Xrotation
		JOINT Right_knee
		{
			OFFSET -0.038290 -0.382569 -0.008850
			CHANNELS 3 Zrotation Yrotation Xrotation
			JOINT Right_ankle
			{
				OFFSET 0.015774 -0.398415 -0.042312
				CHANNELS 3 Zrotation Yrotation Xrotation
				JOINT Right_foot
				{
					OFFSET -0.025372 -0.048144 0.123348
					CHANNELS 3 Zrotation Yrotation Xrotation
					End Site
					{
						OFFSET 0.000000 0.000000 0.000000
					}
				}
			}
		}
	}
	JOINT Spine1
	{
		OFFSET -0.002533 0.108963 -0.026696
		CHANNELS 3 Zrotation Yrotation Xrotation
		JOINT Spine2
		{
			OFFSET 0.005487 0.135180 0.001092
			CHANNELS 3 Zrotation Yrotation Xrotation
			JOINT Spine3
			{
				OFFSET 0.001457 0.052922 0.025425
				CHANNELS 3 Zrotation Yrotation Xrotation
				JOINT Neck
				{
					OFFSET -0.002778 0.213870 -0.042857
					CHANNELS 3 Zrotation Yrotation Xrotation
					JOINT Head
					{
						OFFSET 0.005152 0.064970 0.051349
						CHANNELS 3 Zrotation Yrotation Xrotation
						End Site
						{
							OFFSET 0.000000 0.000000 0.000000
						}
					}
				}
				JOINT Left_collar
				{
					OFFSET 0.078845 0.121749 -0.034090
					CHANNELS 3 Zrotation Yrotation Xrotation
					JOINT Left_shoulder
					{
						OFFSET 0.090977 0.030469 -0.008868
						CHANNELS 3 Zrotation Yrotation Xrotation
						JOINT Left_elbow
						{
							OFFSET 0.259612 -0.012772 -0.027456
							CHANNELS 3 Zrotation Yrotation Xrotation
							JOINT Left_wrist
							{
								OFFSET 0.249234 0.008986 -0.001171
								CHANNELS 3 Zrotation Yrotation Xrotation
								JOINT Left_palm
								{
									OFFSET 0.084042 -0.008162 -0.014945
									CHANNELS 3 Zrotation Yrotation Xrotation
									End Site
									{
										OFFSET 0.000000 0.000000 0.000000
									}
								}
							}
						}
					}
				}
				JOINT Right_collar
				{
					OFFSET -0.081759 0.118833 -0.038615
					CHANNELS 3 Zrotation Yrotation Xrotation
					JOINT Right_shoulder
					{
						OFFSET -0.096012 0.032551 -0.009143
						CHANNELS 3 Zrotation Yrotation Xrotation
						JOINT Right_elbow
						{
							OFFSET -0.253742 -0.013329 -0.021401
							CHANNELS 3 Zrotation Yrotation Xrotation
							JOINT Right_wrist
							{
								OFFSET -0.255298 0.007772 -0.005559
								CHANNELS 3 Zrotation Yrotation Xrotation
								JOINT Right_palm
								{
									OFFSET -0.084622 -0.006117 -0.010315
									CHANNELS 3 Zrotation Yrotation Xrotation
									End Site
									{
										OFFSET 0.000000 0.000000 0.000000
									}
								}
							}
						}
					}
				}
			}
		}
	}
}
MOTION
Frames: 8
Frame Time: 0.016667
-0.004623 0.586778 0.029709 -8.515059 1.635614 4.871553 44.661446 28.510754 -54.199249 -7.527987 5.868783 92.834373 -8.087110 0.654747 -19.986441 15.554729 19.134474 -15.881725 -34.654781 -25.908724 -34.256252 9.884844 -1.796174 57.963856 9.222312 0.734693 -18.304146 -8.455039 -13.720263 -18.569828 -4.942197 6.068107 38.451618 -0.686091 -5.319838 1.665392 2.327512 -2.036123 1.909690 3.485675 -11.395466 3.934873 14.986692 -16.041660 -9.323938 9.100153 -24.311256 -5.620053 -70.771759 -46.321762 26.091572 9.132534 -63.962257 14.397358 6.956809 9.050699 -26.119425 0.000000 0.000000 0.000000 -16.786484 23.975695 -9.447184 74.479599 34.073719 23.662220 0.321422 60.208721 28.573912 -4.993735 -10.587400 -4.042987 0.000000 0.000000 0.000000 
-0.006607 0.585654 0.030055 -8.117221 1.731935 4.950603 44.871517 29.025673 -54.043682 -7.218467 6.324944 92.716599 -8.766049 -0.297559 -19.493889 16.605202 21.202465 -15.317260 -34.517315 -25.227999 -34.616913 9.032450 -1.383794 58.437981 8.554430 0.644627 -18.743982 -6.756046 -15.149229 -19.376036 -4.863505 5.488916 38.179722 -0.975558 -5.047992 1.542676 2.433246 -2.707006 1.966471 4.012935 -10.542323 3.213259 14.840989 -15.904069 -8.885995 7.973694 -24.249495 -4.827439 -69.821564 -46.886311 23.920259 9.307587 -64.073044 14.791042 6.100957 9.757873 -27.962526 0.000000 0.000000 0.000000 -16.492554 23.714758 -9.367177 75.542076 34.314407 24.137346 -0.403122 59.975620 27.037344 -3.265597 -10.757836 -5.060597 0.000000 0.000000 0.000000 
-0.008511 0.584062 0.030450 -7.743677 1.823809 5.117105 45.140305 29.400234 -53.915894 -7.038143 6.838467 92.571579 -9.498162 -1.008528 -19.082045 17.867571 22.803064 -14.757730 -34.497875 -24.699259 -34.952141 8.275311 -1.175073 58.809238 7.888333 0.556558 -19.006180 -5.203075 -16.255163 -20.134415 -4.798950 4.904947 37.502533 -1.172280 -4.832906 1.607316 2.500812 -3.273365 2.093334 4.434353 -9.787449 2.717798 14.831530 -15.585886 -8.544673 7.283795 -24.249035 -4.164899 -69.250900 -47.462761 22.550632 9.625126 -64.196938 14.991149 5.309165 10.306943 -29.600014 0.000000 0.000000 0.000000 -16.365654 23.372967 -9.255575 76.630135 34.286270 24.565933 -0.771285 60.001858 25.986298 -1.832145 -10.952038 -5.875282 0.000000 0.000000 0.000000 
-0.010288 0.581052 0.030921 -7.418636 1.906420 5.457713 45.522423 29.494667 -53.848061 -7.116668 7.465483 92.367378 -10.323506 -1.244448 -18.848230 19.501219 23.477411 -14.274435 -34.705933 -24.476404 -35.243092 7.702271 -1.384164 58.986568 7.224536 0.481724 -18.914322 -3.990804 -16.746822 -20.723087 -4.756860 4.311447 36.016262 -1.182210 -4.730252 2.048823 2.491926 -3.630479 2.362474 4.664076 -9.239676 2.659609 15.093225 -14.908738 -8.393681 7.463708 -24.395601 -3.759423 -69.512856 -48.104427 22.850048 10.232326 -64.345612 14.799682 4.682220 10.577076 -30.804825 0.000000 0.000000 0.000000 -16.571793 22.870481 -9.077217 77.752914 33.729259 24.880081 -0.454131 60.562935 25.881090 -0.992441 -11.240327 -6.278242 0.000000 0.000000 0.000000 
-0.012178 0.581351 0.031340 -7.166605 1.951220 5.808189 45.787056 29.388777 -53.570145 -7.287371 8.024512 91.755913 -11.062582 -1.132273 -18.660967 21.125700 23.547758 -13.969022 -34.757298 -24.487803 -35.435436 7.267018 -1.704941 58.873241 6.718585 0.329093 -18.530207 -3.324529 -16.890022 -21.115583 -4.867923 3.849157 34.641483 -1.032598 -4.738379 2.529673 2.603674 -3.850983 2.611089 4.784512 -9.373301 3.017001 15.608016 -14.466407 -8.346701 7.850460 -24.435226 -3.550631 -70.441269 -48.718987 23.969667 10.537685 -64.352539 14.710685 4.098822 10.675151 -31.761433 0.000000 0.000000 0.000000 -16.816717 22.373499 -8.766919 78.651627 32.902069 24.983206 -0.273360 61.215580 25.879627 -0.437567 -11.529946 -6.328753 0.000000 0.000000 0.000000 
-0.014349 0.587570 0.031661 -7.012742 1.931578 6.004092 45.702831 29.162983 -52.810760 -7.385128 8.334002 90.392853 -11.538291 -0.796756 -18.384529 22.374294 23.344683 -13.927044 -34.269341 -24.659725 -35.474506 6.925827 -1.830956 58.366383 6.524374 0.002840 -17.915243 -3.397085 -16.948711 -21.303637 -5.283764 3.656136 34.298222 -0.751376 -4.854859 2.711441 3.034287 -4.008305 2.674790 4.860319 -10.660448 3.772326 16.360863 -14.852286 -8.329142 7.781674 -24.105450 -3.475736 -71.831268 -49.209183 25.027475 9.949169 -64.052948 15.218819 3.429391 10.698377 -32.659233 0.000000 0.000000 0.000000 -16.807957 22.046316 -8.265324 79.086555 32.065174 24.803497 -1.100129 61.513546 25.088905 0.141095 -11.718798 -6.086122 0.000000 0.000000 0.000000 
-0.016633 0.595035 0.031729 -6.972949 1.836276 6.200880 45.612553 28.950394 -51.951511 -7.448083 8.514851 88.856667 -11.805502 -0.424515 -18.047688 23.114916 23.123205 -14.020269 -33.605061 -24.902205 -35.705788 6.667173 -2.046402 58.001213 6.591825 -0.424070 -17.155188 -3.853023 -16.934988 -21.299532 -5.653296 3.548467 34.143913 -0.465442 -4.952324 2.715357 3.463246 -4.120541 2.696558 4.673720 -11.942067 4.572948 16.990385 -15.320699 -8.426663 7.591310 -23.754189 -3.386468 -73.340691 -49.624058 26.029020 9.235795 -63.424622 15.584684 2.830426 10.428222 -33.644871 0.000000 0.000000 0.000000 -16.760414 21.760992 -7.743707 79.128700 31.165663 24.365173 -2.471194 61.601608 23.701586 0.694078 -11.696349 -5.918467 0.000000 0.000000 0.000000 
-0.018763 0.598170 0.031572 -7.063546 1.653729 6.554444 45.864372 28.876596 -51.373356 -7.513299 8.688351 87.724998 -11.921247 -0.202622 -17.676876 23.219093 23.131031 -14.110223 -33.126499 -25.120928 -36.472218 6.477246 -2.630533 58.315769 6.872904 -0.879780 -16.336740 -4.335558 -16.856224 -21.117596 -5.615823 3.338570 33.336372 -0.301765 -4.903886 2.664107 3.569088 -4.206656 2.820763 4.047403 -12.055167 5.061224 17.129669 -15.125861 -8.704923 7.611697 -23.730312 -3.130810 -74.626671 -50.020710 26.977066 9.115932 -62.453770 15.118517 2.468675 9.648774 -34.860783 0.000000 0.000000 0.000000 -16.887905 21.392654 -7.370412 78.848885 30.146534 23.691206 -3.909822 61.628036 21.924314 1.171821 -11.345009 -6.191928 0.000000 0.000000 0.000000 
